<svg class="toyplot-canvas-Canvas" xmlns:toyplot="http://www.sandia.gov/toyplot" xmlns:xlink="http://www.w3.org/1999/xlink" xmlns="http://www.w3.org/2000/svg" width="2000.0px" height="1000.0px" viewBox="0 0 2000.0 1000.0" preserveAspectRatio="xMidYMid meet" style="background-color:transparent;border-color:#292724;border-style:none;border-width:1.0;fill:rgb(16.1%,15.3%,14.1%);fill-opacity:1.0;font-family:Helvetica;font-size:12px;opacity:1.0;stroke:rgb(16.1%,15.3%,14.1%);stroke-opacity:1.0;stroke-width:1.0" id="ta4b81be80e164683a41e4acdd86c5a49"><g class="toyplot-coordinates-Cartesian" id="t73f8198f510848299a5f7606226e26d5"><clipPath id="t29a7efc7928f408ca4ae8446c8344e2c"><rect x="30.0" y="30.0" width="1940.0" height="940.0" /></clipPath><g clip-path="url(#t29a7efc7928f408ca4ae8446c8344e2c)"><g class="toytree-mark-Toytree" id="t911a5a65cbe64150968f97baa05ca1df"><g class="toytree-Edges" style="fill:none;stroke:rgb(14.9%,14.9%,14.9%);stroke-linecap:round;stroke-opacity:1;stroke-width:2"><path d="M 50.0 114.2 L 50.0 90.6 L 254.8 90.6" id="97,96" /><path d="M 50.0 114.2 L 50.0 189.7 L 226.5 189.7" id="97,95" /><path d="M 254.8 90.6 L 254.8 102.8 L 350.9 102.8" id="96,94" /><path d="M 226.5 189.7 L 226.5 135.2 L 377.1 135.2" id="95,93" /><path d="M 226.5 189.7 L 226.5 244.3 L 443.2 244.3" id="95,92" /><path d="M 443.2 244.3 L 443.2 329.0 L 685.4 329.0" id="92,91" /><path d="M 685.4 329.0 L 685.4 183.9 L 807.9 183.9" id="91,90" /><path d="M 685.4 329.0 L 685.4 474.2 L 800.3 474.2" id="91,89" /><path d="M 800.3 474.2 L 800.3 216.3 L 882.0 216.3" id="89,88" /><path d="M 800.3 474.2 L 800.3 248.7 L 880.8 248.7" id="89,87" /><path d="M 800.3 474.2 L 800.3 281.1 L 887.8 281.1" id="89,86" /><path d="M 800.3 474.2 L 800.3 313.6 L 901.1 313.6" id="89,85" /><path d="M 800.3 474.2 L 800.3 346.0 L 885.9 346.0" id="89,84" /><path d="M 800.3 474.2 L 800.3 394.6 L 1030.4 394.6" id="89,83" /><path d="M 800.3 474.2 L 800.3 459.5 L 967.7 459.5" id="89,82" /><path d="M 800.3 474.2 L 800.3 524.3 L 983.5 524.3" id="89,81" /><path d="M 800.3 474.2 L 800.3 591.2 L 909.5 591.2" id="89,80" /><path d="M 800.3 474.2 L 800.3 673.3 L 1220.4 673.3" id="89,79" /><path d="M 800.3 474.2 L 800.3 770.5 L 1012.2 770.5" id="89,78" /><path d="M 800.3 474.2 L 800.3 870.9 L 846.5 870.9" id="89,77" /><path d="M 1030.4 394.6 L 1030.4 378.4 L 1199.9 378.4" id="83,76" /><path d="M 1030.4 394.6 L 1030.4 410.8 L 1114.6 410.8" id="83,75" /><path d="M 967.7 459.5 L 967.7 443.3 L 1027.4 443.3" id="82,74" /><path d="M 967.7 459.5 L 967.7 475.7 L 1050.1 475.7" id="82,73" /><path d="M 983.5 524.3 L 983.5 508.1 L 1059.7 508.1" id="81,72" /><path d="M 983.5 524.3 L 983.5 540.5 L 1040.4 540.5" id="81,71" /><path d="M 909.5 591.2 L 909.5 573.0 L 999.2 573.0" id="80,70" /><path d="M 909.5 591.2 L 909.5 609.4 L 1095.8 609.4" id="80,69" /><path d="M 1220.4 673.3 L 1220.4 654.0 L 1300.0 654.0" id="79,68" /><path d="M 1220.4 673.3 L 1220.4 692.5 L 1404.5 692.5" id="79,67" /><path d="M 1012.2 770.5 L 1012.2 751.3 L 1079.1 751.3" id="78,66" /><path d="M 1012.2 770.5 L 1012.2 789.8 L 1260.0 789.8" id="78,65" /><path d="M 846.5 870.9 L 846.5 848.6 L 937.3 848.6" id="77,64" /><path d="M 846.5 870.9 L 846.5 893.2 L 1017.9 893.2" id="77,63" /><path d="M 1095.8 609.4 L 1095.8 621.6 L 1288.7 621.6" id="69,62" /><path d="M 1404.5 692.5 L 1404.5 706.7 L 1603.5 706.7" id="67,61" /><path d="M 1260.0 789.8 L 1260.0 804.0 L 1439.8 804.0" id="65,60" /><path d="M 1017.9 893.2 L 1017.9 913.4 L 1222.8 913.4" id="63,59" /><path d="M 1603.5 706.7 L 1603.5 718.9 L 1697.4 718.9" id="61,58" /><path d="M 1439.8 804.0 L 1439.8 816.1 L 1564.2 816.1" id="60,57" /><path d="M 1222.8 913.4 L 1222.8 897.2 L 1314.3 897.2" id="59,56" /><path d="M 1222.8 913.4 L 1222.8 929.6 L 1321.2 929.6" id="59,55" /><path d="M 50.0 114.2 L 50.0 62.3 L 146.7 62.3" id="97,54" /><path d="M 254.8 90.6 L 254.8 78.5 L 344.2 78.5" id="96,53" /><path d="M 350.9 102.8 L 350.9 94.7 L 444.4 94.7" id="94,52" /><path d="M 350.9 102.8 L 350.9 110.9 L 439.3 110.9" id="94,51" /><path d="M 377.1 135.2 L 377.1 127.1 L 555.8 127.1" id="93,50" /><path d="M 377.1 135.2 L 377.1 143.3 L 474.1 143.3" id="93,49" /><path d="M 443.2 244.3 L 443.2 159.5 L 538.6 159.5" id="92,48" /><path d="M 807.9 183.9 L 807.9 175.7 L 899.8 175.7" id="90,47" /><path d="M 807.9 183.9 L 807.9 192.0 L 909.1 192.0" id="90,46" /><path d="M 882.0 216.3 L 882.0 208.2 L 970.3 208.2" id="88,45" /><path d="M 882.0 216.3 L 882.0 224.4 L 966.6 224.4" id="88,44" /><path d="M 880.8 248.7 L 880.8 240.6 L 973.4 240.6" id="87,43" /><path d="M 880.8 248.7 L 880.8 256.8 L 973.2 256.8" id="87,42" /><path d="M 887.8 281.1 L 887.8 273.0 L 981.7 273.0" id="86,41" /><path d="M 887.8 281.1 L 887.8 289.2 L 979.8 289.2" id="86,40" /><path d="M 901.1 313.6 L 901.1 305.4 L 1003.0 305.4" id="85,39" /><path d="M 901.1 313.6 L 901.1 321.7 L 996.3 321.7" id="85,38" /><path d="M 885.9 346.0 L 885.9 337.9 L 968.1 337.9" id="84,37" /><path d="M 885.9 346.0 L 885.9 354.1 L 972.1 354.1" id="84,36" /><path d="M 1199.9 378.4 L 1199.9 370.3 L 1388.6 370.3" id="76,35" /><path d="M 1199.9 378.4 L 1199.9 386.5 L 1370.2 386.5" id="76,34" /><path d="M 1114.6 410.8 L 1114.6 402.7 L 1211.8 402.7" id="75,33" /><path d="M 1114.6 410.8 L 1114.6 418.9 L 1202.0 418.9" id="75,32" /><path d="M 1027.4 443.3 L 1027.4 435.1 L 1115.7 435.1" id="74,31" /><path d="M 1027.4 443.3 L 1027.4 451.4 L 1113.9 451.4" id="74,30" /><path d="M 1050.1 475.7 L 1050.1 467.6 L 1150.5 467.6" id="73,29" /><path d="M 1050.1 475.7 L 1050.1 483.8 L 1138.2 483.8" id="73,28" /><path d="M 1059.7 508.1 L 1059.7 500.0 L 1143.2 500.0" id="72,27" /><path d="M 1059.7 508.1 L 1059.7 516.2 L 1150.0 516.2" id="72,26" /><path d="M 1040.4 540.5 L 1040.4 532.4 L 1130.4 532.4" id="71,25" /><path d="M 1040.4 540.5 L 1040.4 548.6 L 1141.9 548.6" id="71,24" /><path d="M 999.2 573.0 L 999.2 564.9 L 1089.1 564.9" id="70,23" /><path d="M 999.2 573.0 L 999.2 581.1 L 1097.8 581.1" id="70,22" /><path d="M 1095.8 609.4 L 1095.8 597.3 L 1190.1 597.3" id="69,21" /><path d="M 1288.7 621.6 L 1288.7 613.5 L 1381.0 613.5" id="62,20" /><path d="M 1288.7 621.6 L 1288.7 629.7 L 1377.0 629.7" id="62,19" /><path d="M 1300.0 654.0 L 1300.0 645.9 L 1394.3 645.9" id="68,18" /><path d="M 1300.0 654.0 L 1300.0 662.1 L 1401.3 662.1" id="68,17" /><path d="M 1404.5 692.5 L 1404.5 678.3 L 1492.0 678.3" id="67,16" /><path d="M 1603.5 706.7 L 1603.5 694.6 L 1697.1 694.6" id="61,15" /><path d="M 1697.4 718.9 L 1697.4 710.8 L 1792.9 710.8" id="58,14" /><path d="M 1697.4 718.9 L 1697.4 727.0 L 1797.5 727.0" id="58,13" /><path d="M 1079.1 751.3 L 1079.1 743.2 L 1163.2 743.2" id="66,12" /><path d="M 1079.1 751.3 L 1079.1 759.4 L 1168.8 759.4" id="66,11" /><path d="M 1260.0 789.8 L 1260.0 775.6 L 1342.4 775.6" id="65,10" /><path d="M 1439.8 804.0 L 1439.8 791.8 L 1531.7 791.8" id="60,9" /><path d="M 1564.2 816.1 L 1564.2 808.0 L 1705.9 808.0" id="57,8" /><path d="M 1564.2 816.1 L 1564.2 824.3 L 1661.7 824.3" id="57,7" /><path d="M 937.3 848.6 L 937.3 840.5 L 1024.6 840.5" id="64,6" /><path d="M 937.3 848.6 L 937.3 856.7 L 1042.7 856.7" id="64,5" /><path d="M 1017.9 893.2 L 1017.9 872.9 L 1109.8 872.9" id="63,4" /><path d="M 1314.3 897.2 L 1314.3 889.1 L 1410.3 889.1" id="56,3" /><path d="M 1314.3 897.2 L 1314.3 905.3 L 1402.8 905.3" id="56,2" /><path d="M 1321.2 929.6 L 1321.2 921.5 L 1422.6 921.5" id="55,1" /><path d="M 1321.2 929.6 L 1321.2 937.7 L 1416.4 937.7" id="55,0" /></g><g class="toytree-AlignEdges" style="stroke:rgb(66.3%,66.3%,66.3%);stroke-dasharray:2, 4;stroke-linecap:round;stroke-opacity:1.0;stroke-width:2"><path d="M 1797.5 937.7 L 1416.4 937.7" /><path d="M 1797.5 921.5 L 1422.6 921.5" /><path d="M 1797.5 905.3 L 1402.8 905.3" /><path d="M 1797.5 889.1 L 1410.3 889.1" /><path d="M 1797.5 872.9 L 1109.8 872.9" /><path d="M 1797.5 856.7 L 1042.7 856.7" /><path d="M 1797.5 840.5 L 1024.6 840.5" /><path d="M 1797.5 824.3 L 1661.7 824.3" /><path d="M 1797.5 808.0 L 1705.9 808.0" /><path d="M 1797.5 791.8 L 1531.7 791.8" /><path d="M 1797.5 775.6 L 1342.4 775.6" /><path d="M 1797.5 759.4 L 1168.8 759.4" /><path d="M 1797.5 743.2 L 1163.2 743.2" /><path d="M 1797.5 727.0 L 1797.5 727.0" /><path d="M 1797.5 710.8 L 1792.9 710.8" /><path d="M 1797.5 694.6 L 1697.1 694.6" /><path d="M 1797.5 678.3 L 1492.0 678.3" /><path d="M 1797.5 662.1 L 1401.3 662.1" /><path d="M 1797.5 645.9 L 1394.3 645.9" /><path d="M 1797.5 629.7 L 1377.0 629.7" /><path d="M 1797.5 613.5 L 1381.0 613.5" /><path d="M 1797.5 597.3 L 1190.1 597.3" /><path d="M 1797.5 581.1 L 1097.8 581.1" /><path d="M 1797.5 564.9 L 1089.1 564.9" /><path d="M 1797.5 548.6 L 1141.9 548.6" /><path d="M 1797.5 532.4 L 1130.4 532.4" /><path d="M 1797.5 516.2 L 1150.0 516.2" /><path d="M 1797.5 500.0 L 1143.2 500.0" /><path d="M 1797.5 483.8 L 1138.2 483.8" /><path d="M 1797.5 467.6 L 1150.5 467.6" /><path d="M 1797.5 451.4 L 1113.9 451.4" /><path d="M 1797.5 435.1 L 1115.7 435.1" /><path d="M 1797.5 418.9 L 1202.0 418.9" /><path d="M 1797.5 402.7 L 1211.8 402.7" /><path d="M 1797.5 386.5 L 1370.2 386.5" /><path d="M 1797.5 370.3 L 1388.6 370.3" /><path d="M 1797.5 354.1 L 972.1 354.1" /><path d="M 1797.5 337.9 L 968.1 337.9" /><path d="M 1797.5 321.7 L 996.3 321.7" /><path d="M 1797.5 305.4 L 1003.0 305.4" /><path d="M 1797.5 289.2 L 979.8 289.2" /><path d="M 1797.5 273.0 L 981.7 273.0" /><path d="M 1797.5 256.8 L 973.2 256.8" /><path d="M 1797.5 240.6 L 973.4 240.6" /><path d="M 1797.5 224.4 L 966.6 224.4" /><path d="M 1797.5 208.2 L 970.3 208.2" /><path d="M 1797.5 192.0 L 909.1 192.0" /><path d="M 1797.5 175.7 L 899.8 175.7" /><path d="M 1797.5 159.5 L 538.6 159.5" /><path d="M 1797.5 143.3 L 474.1 143.3" /><path d="M 1797.5 127.1 L 555.8 127.1" /><path d="M 1797.5 110.9 L 439.3 110.9" /><path d="M 1797.5 94.7 L 444.4 94.7" /><path d="M 1797.5 78.5 L 344.2 78.5" /><path d="M 1797.5 62.3 L 146.7 62.3" /></g><g class="toytree-NodeLabels" style="fill:rgb(14.9%,14.9%,14.9%);fill-opacity:1.0;font-size:9px;stroke:none"><g transform="translate(964.08,210.47)"><text>61 </text></g><g transform="translate(902.82,194.26)"><text>62 </text></g><g transform="translate(893.58,178.05)"><text>11 </text></g><g transform="translate(532.38,161.83)"><text>65 </text></g><g transform="translate(467.86,145.62)"><text>12 </text></g><g transform="translate(549.53,129.41)"><text>13 </text></g><g transform="translate(435.53,113.19)"><text>5 </text></g><g transform="translate(438.13,96.98)"><text>17 </text></g><g transform="translate(337.97,80.77)"><text>55 </text></g><g transform="translate(140.43,64.56)"><text>10 </text></g><g transform="translate(1306.15,931.94)"><text>16/0.19</text></g><g transform="translate(1299.31,899.51)"><text>58/0.19</text></g><g transform="translate(1554.23,818.45)"><text>4/0.1</text></g><g transform="translate(1682.36,721.17)"><text>18/0.27</text></g><g transform="translate(1210.24,915.72)"><text>4/0.77</text></g><g transform="translate(1424.75,806.29)"><text>25/0.05</text></g><g transform="translate(1591.04,709.01)"><text>5/0.57</text></g><g transform="translate(1273.72,623.89)"><text>32/0.67</text></g><g transform="translate(1005.38,895.46)"><text>2/0.07</text></g><g transform="translate(924.78,850.87)"><text>1/0.01</text></g><g transform="translate(1244.97,792.10)"><text>32/0.01</text></g><g transform="translate(1066.61,753.60)"><text>1/0.01</text></g><g transform="translate(1391.99,694.83)"><text>0/0.04</text></g><g transform="translate(1285.00,656.32)"><text>53/0.01</text></g><g transform="translate(1083.28,611.74)"><text>0/0.05</text></g><g transform="translate(986.66,575.26)"><text>0/0.02</text></g><g transform="translate(1027.85,542.83)"><text>0/0.02</text></g><g transform="translate(1047.23,510.41)"><text>0/0.04</text></g><g transform="translate(1037.59,477.98)"><text>0/0.01</text></g><g transform="translate(1014.94,445.56)"><text>0/0.02</text></g><g transform="translate(1102.09,413.13)"><text>0/0.02</text></g><g transform="translate(1187.36,380.70)"><text>0/0.03</text></g><g transform="translate(836.51,873.17)"><text>0/0.0</text></g><g transform="translate(1002.15,772.85)"><text>0/0.0</text></g><g transform="translate(1207.84,675.57)"><text>28/0.0</text></g><g transform="translate(899.46,593.50)"><text>0/0.0</text></g><g transform="translate(973.45,526.62)"><text>0/0.0</text></g><g transform="translate(957.66,461.77)"><text>1/0.0</text></g><g transform="translate(1020.34,396.92)"><text>0/0.0</text></g><g transform="translate(873.40,348.28)"><text>0/0.02</text></g><g transform="translate(888.61,315.85)"><text>0/0.01</text></g><g transform="translate(875.33,283.43)"><text>0/0.01</text></g><g transform="translate(868.33,251.00)"><text>0/0.02</text></g><g transform="translate(869.52,218.58)"><text>0/0.01</text></g><g transform="translate(790.27,476.46)"><text>0/0.0</text></g><g transform="translate(792.91,186.15)"><text>64/0.01</text></g><g transform="translate(672.92,331.31)"><text>0/0.01</text></g><g transform="translate(430.67,246.57)"><text>0/0.05</text></g><g transform="translate(364.57,137.51)"><text>64/0.2</text></g><g transform="translate(340.84,105.09)"><text>0/0.3</text></g><g transform="translate(213.97,192.04)"><text>0/0.34</text></g><g transform="translate(244.84,92.93)"><text>0/0.7</text></g></g><g class="toytree-TipLabels" style="fill:rgb(14.9%,14.9%,14.9%);fill-opacity:1.0;font-family:helvetica;font-size:11px;font-weight:normal;stroke:none;white-space:pre"><g transform="translate(1797.55,937.74)rotate(0)"><text x="15.00" y="2.81" style="fill:rgb(32.5%,51.8%,63.9%);fill-opacity:1.0">SRR8860753_cut</text></g><g transform="translate(1797.55,921.53)rotate(0)"><text x="15.00" y="2.81" style="fill:rgb(100%,84.3%,0%);fill-opacity:1.0">SRR8860748_cut</text></g><g transform="translate(1797.55,905.32)rotate(0)"><text x="15.00" y="2.81" style="fill:rgb(32.5%,51.8%,63.9%);fill-opacity:1.0">SRR8860752_cut</text></g><g transform="translate(1797.55,889.11)rotate(0)"><text x="15.00" y="2.81" style="fill:rgb(100%,84.3%,0%);fill-opacity:1.0">SRR8860741_cut</text></g><g transform="translate(1797.55,872.89)rotate(0)"><text x="15.00" y="2.81" style="fill:rgb(1.57%,0%,3.14%);fill-opacity:1.0">SRR8860647_cut</text></g><g transform="translate(1797.55,856.68)rotate(0)"><text x="15.00" y="2.81" style="fill:rgb(54.5%,27.1%,7.45%);fill-opacity:1.0">SRR8860757_cut</text></g><g transform="translate(1797.55,840.47)rotate(0)"><text x="15.00" y="2.81" style="fill:rgb(22.4%,56.1%,7.84%);fill-opacity:1.0">SRR8860538_cut</text></g><g transform="translate(1797.55,824.25)rotate(0)"><text x="15.00" y="2.81" style="fill:rgb(28.6%,8.24%,43.9%);fill-opacity:1.0">SRR8860737_cut</text></g><g transform="translate(1797.55,808.04)rotate(0)"><text x="15.00" y="2.81" style="fill:rgb(32.5%,51.8%,63.9%);fill-opacity:1.0">SRR8860509_cut</text></g><g transform="translate(1797.55,791.83)rotate(0)"><text x="15.00" y="2.81" style="fill:rgb(83.9%,33.3%,48.6%);fill-opacity:1.0">SRR8993003_cut</text></g><g transform="translate(1797.55,775.62)rotate(0)"><text x="15.00" y="2.81" style="fill:rgb(1.57%,0%,3.14%);fill-opacity:1.0">SRR8860649_cut</text></g><g transform="translate(1797.55,759.40)rotate(0)"><text x="15.00" y="2.81" style="fill:rgb(100%,0%,0%);fill-opacity:1.0">SRR8860731_cut</text></g><g transform="translate(1797.55,743.19)rotate(0)"><text x="15.00" y="2.81" style="fill:rgb(22.4%,56.1%,7.84%);fill-opacity:1.0">SRR8860537_cut</text></g><g transform="translate(1797.55,726.98)rotate(0)"><text x="15.00" y="2.81" style="fill:rgb(22.4%,56.1%,7.84%);fill-opacity:1.0">SRR8860533_cut</text></g><g transform="translate(1797.55,710.77)rotate(0)"><text x="15.00" y="2.81" style="fill:rgb(28.6%,8.24%,43.9%);fill-opacity:1.0">SRR5632497_cut</text></g><g transform="translate(1797.55,694.55)rotate(0)"><text x="15.00" y="2.81" style="fill:rgb(22.4%,56.1%,7.84%);fill-opacity:1.0">SRR8860535_cut</text></g><g transform="translate(1797.55,678.34)rotate(0)"><text x="15.00" y="2.81" style="fill:rgb(28.6%,8.24%,43.9%);fill-opacity:1.0">SRR8860738_cut</text></g><g transform="translate(1797.55,662.13)rotate(0)"><text x="15.00" y="2.81" style="fill:rgb(22.4%,56.1%,7.84%);fill-opacity:1.0">SRR8860534_cut</text></g><g transform="translate(1797.55,645.91)rotate(0)"><text x="15.00" y="2.81" style="fill:rgb(28.6%,8.24%,43.9%);fill-opacity:1.0">SRR8860522_cut</text></g><g transform="translate(1797.55,629.70)rotate(0)"><text x="15.00" y="2.81" style="fill:rgb(28.6%,8.24%,43.9%);fill-opacity:1.0">SRR8860736_cut</text></g><g transform="translate(1797.55,613.49)rotate(0)"><text x="15.00" y="2.81" style="fill:rgb(28.6%,8.24%,43.9%);fill-opacity:1.0">SRR8860734_cut</text></g><g transform="translate(1797.55,597.28)rotate(0)"><text x="15.00" y="2.81" style="fill:rgb(28.6%,8.24%,43.9%);fill-opacity:1.0">SRR8860733_cut</text></g><g transform="translate(1797.55,581.06)rotate(0)"><text x="15.00" y="2.81" style="fill:rgb(28.6%,8.24%,43.9%);fill-opacity:1.0">SRR8993000_cut</text></g><g transform="translate(1797.55,564.85)rotate(0)"><text x="15.00" y="2.81" style="fill:rgb(32.5%,51.8%,63.9%);fill-opacity:1.0">SRR8860510_cut</text></g><g transform="translate(1797.55,548.64)rotate(0)"><text x="15.00" y="2.81" style="fill:rgb(54.5%,27.1%,7.45%);fill-opacity:1.0">SRR8860755_cut</text></g><g transform="translate(1797.55,532.43)rotate(0)"><text x="15.00" y="2.81" style="fill:rgb(100%,0%,0%);fill-opacity:1.0">SRR8860730_cut</text></g><g transform="translate(1797.55,516.21)rotate(0)"><text x="15.00" y="2.81" style="fill:rgb(100%,0%,0%);fill-opacity:1.0">SRR8860732_cut</text></g><g transform="translate(1797.55,500.00)rotate(0)"><text x="15.00" y="2.81" style="fill:rgb(100%,0%,0%);fill-opacity:1.0">SRR8860729_cut</text></g><g transform="translate(1797.55,483.79)rotate(0)"><text x="15.00" y="2.81" style="fill:rgb(28.6%,8.24%,43.9%);fill-opacity:1.0">SRR8860602_cut</text></g><g transform="translate(1797.55,467.57)rotate(0)"><text x="15.00" y="2.81" style="fill:rgb(22.4%,56.1%,7.84%);fill-opacity:1.0">SRR8860524_cut</text></g><g transform="translate(1797.55,451.36)rotate(0)"><text x="15.00" y="2.81" style="fill:rgb(100%,84.3%,0%);fill-opacity:1.0">SRR8860747_cut</text></g><g transform="translate(1797.55,435.15)rotate(0)"><text x="15.00" y="2.81" style="fill:rgb(22.4%,56.1%,7.84%);fill-opacity:1.0">SRR5632568_cut</text></g><g transform="translate(1797.55,418.94)rotate(0)"><text x="15.00" y="2.81" style="fill:rgb(28.6%,8.24%,43.9%);fill-opacity:1.0">SRR8860735_cut</text></g><g transform="translate(1797.55,402.72)rotate(0)"><text x="15.00" y="2.81" style="fill:rgb(22.4%,56.1%,7.84%);fill-opacity:1.0">SRR8860532_cut</text></g><g transform="translate(1797.55,386.51)rotate(0)"><text x="15.00" y="2.81" style="fill:rgb(83.9%,33.3%,48.6%);fill-opacity:1.0">SRR8993002_cut</text></g><g transform="translate(1797.55,370.30)rotate(0)"><text x="15.00" y="2.81" style="fill:rgb(28.6%,8.24%,43.9%);fill-opacity:1.0">SRR5632519_cut</text></g><g transform="translate(1797.55,354.09)rotate(0)"><text x="15.00" y="2.81" style="fill:rgb(28.6%,8.24%,43.9%);fill-opacity:1.0">SRR8860561_cut</text></g><g transform="translate(1797.55,337.87)rotate(0)"><text x="15.00" y="2.81" style="fill:rgb(28.6%,8.24%,43.9%);fill-opacity:1.0">SRR8860560_cut</text></g><g transform="translate(1797.55,321.66)rotate(0)"><text x="15.00" y="2.81" style="fill:rgb(83.9%,33.3%,48.6%);fill-opacity:1.0">SRR8993001_cut</text></g><g transform="translate(1797.55,305.45)rotate(0)"><text x="15.00" y="2.81" style="fill:rgb(22.4%,56.1%,7.84%);fill-opacity:1.0">SRR8860536_cut</text></g><g transform="translate(1797.55,289.23)rotate(0)"><text x="15.00" y="2.81" style="fill:rgb(1.57%,0%,3.14%);fill-opacity:1.0">SRR8860648_cut</text></g><g transform="translate(1797.55,273.02)rotate(0)"><text x="15.00" y="2.81" style="fill:rgb(32.5%,51.8%,63.9%);fill-opacity:1.0">SRR8860519_cut</text></g><g transform="translate(1797.55,256.81)rotate(0)"><text x="15.00" y="2.81" style="fill:rgb(22.4%,56.1%,7.84%);fill-opacity:1.0">SRR5632626_cut</text></g><g transform="translate(1797.55,240.60)rotate(0)"><text x="15.00" y="2.81" style="fill:rgb(100%,84.3%,0%);fill-opacity:1.0">SRR5632565_cut</text></g><g transform="translate(1797.55,224.38)rotate(0)"><text x="15.00" y="2.81" style="fill:rgb(54.5%,27.1%,7.45%);fill-opacity:1.0">SRR8860754_cut</text></g><g transform="translate(1797.55,208.17)rotate(0)"><text x="15.00" y="2.81" style="fill:rgb(58.8%,5.49%,5.49%);fill-opacity:1.0">SRR5632503_cut</text></g><g transform="translate(1797.55,191.96)rotate(0)"><text x="15.00" y="2.81" style="fill:rgb(100%,0%,0%);fill-opacity:1.0">SRR8860646_cut</text></g><g transform="translate(1797.55,175.75)rotate(0)"><text x="15.00" y="2.81" style="fill:rgb(100%,84.3%,0%);fill-opacity:1.0">SRR8860507_cut</text></g><g transform="translate(1797.55,159.53)rotate(0)"><text x="15.00" y="2.81" style="fill:rgb(28.6%,8.24%,43.9%);fill-opacity:1.0">SRR8860600_cut</text></g><g transform="translate(1797.55,143.32)rotate(0)"><text x="15.00" y="2.81" style="fill:rgb(54.5%,27.1%,7.45%);fill-opacity:1.0">SRR8860756_cut</text></g><g transform="translate(1797.55,127.11)rotate(0)"><text x="15.00" y="2.81" style="fill:rgb(100%,84.3%,0%);fill-opacity:1.0">SRR8860508_cut</text></g><g transform="translate(1797.55,110.89)rotate(0)"><text x="15.00" y="2.81" style="fill:rgb(22.4%,56.1%,7.84%);fill-opacity:1.0">SRR8860523_cut</text></g><g transform="translate(1797.55,94.68)rotate(0)"><text x="15.00" y="2.81" style="fill:rgb(22.4%,56.1%,7.84%);fill-opacity:1.0">SRR8860514_cut</text></g><g transform="translate(1797.55,78.47)rotate(0)"><text x="15.00" y="2.81" style="fill:rgb(22.4%,56.1%,7.84%);fill-opacity:1.0">SRR8860513_cut</text></g><g transform="translate(1797.55,62.26)rotate(0)"><text x="15.00" y="2.81" style="fill:rgb(32.5%,51.8%,63.9%);fill-opacity:1.0">SRR5632374_cut</text></g></g></g></g></g></svg>